<?xml version="1.0" encoding="UTF-8"?>
<svg xmlns="http://www.w3.org/2000/svg" width="1600" height="1067" viewBox="0 0 1600 1067">
<defs>
<linearGradient id="bg" x1="0" y1="0" x2="1" y2="1">
<stop offset="0%" stop-color="#120d0a"/>
<stop offset="45%" stop-color="#2c1c13"/>
<stop offset="100%" stop-color="#5b3b25"/>
</linearGradient>
<radialGradient id="light" cx="70%" cy="30%" r="55%">
<stop offset="0%" stop-color="#c98c48" stop-opacity=".35"/>
<stop offset="100%" stop-color="#000" stop-opacity="0"/>
</radialGradient>
<linearGradient id="gold" x1="0" y1="0" x2="0" y2="1">
<stop offset="0%" stop-color="#f3d18d"/>
<stop offset="100%" stop-color="#9d6428"/>
</linearGradient>
<filter id="shadow" x="-20%" y="-20%" width="140%" height="140%">
<feDropShadow dx="0" dy="8" stdDeviation="10" flood-color="#000" flood-opacity=".35"/>
</filter>
</defs>

<rect width="1600" height="1067" fill="url(#bg)"/>
<rect width="1600" height="1067" fill="url(#light)"/>



<g filter="url(#shadow)">
<ellipse cx="180" cy="710" rx="72" ry="18" fill="#5f4735"/>
<path d="M128 500 C115 630 118 720 180 760 C242 720 245 630 232 500 Z" fill="#b89b7c"/>
<g stroke="#d9bb8a" stroke-width="4">
<path d="M180 500 L150 280"/><path d="M180 500 L210 250"/><path d="M180 500 L105 300"/>
</g>
<g fill="#d7ba89">
<ellipse cx="150" cy="300" rx="22" ry="80" transform="rotate(-20 150 300)"/>
<ellipse cx="210" cy="260" rx="20" ry="90" transform="rotate(8 210 260)"/>
<ellipse cx="105" cy="320" rx="20" ry="75" transform="rotate(-35 105 320)"/>
</g>

<rect x="35" y="785" width="420" height="62" rx="4" fill="#4a2d1b"/>
<rect x="60" y="720" width="380" height="60" rx="4" fill="#7a5431"/>
<rect x="88" y="652" width="350" height="64" rx="4" fill="#ece1d2"/>
<line x1="88" y1="684" x2="438" y2="684" stroke="#c6b49b"/>
<rect x="220" y="685" width="120" height="10" rx="5" fill="#b77a22" transform="rotate(-9 220 685)"/>
</g>

<path d="M1060 730 C1180 690 1320 600 1525 360" stroke="#e9c981" stroke-width="3" fill="none"/>
<polygon points="1525,360 1497,370 1512,340" fill="#e9c981"/>

<g filter="url(#shadow)">
<rect x="1120" y="650" width="38" height="80" fill="url(#gold)"/>
<rect x="1195" y="610" width="38" height="120" fill="url(#gold)"/>
<rect x="1270" y="560" width="38" height="170" fill="url(#gold)"/>
<rect x="1345" y="490" width="38" height="240" fill="url(#gold)"/>
<rect x="1420" y="410" width="38" height="320" fill="url(#gold)"/>
</g>

<line x1="430" y1="150" x2="690" y2="150" stroke="#b8925f"/>
<line x1="910" y1="150" x2="1170" y2="150" stroke="#b8925f"/>

<text x="800" y="190" text-anchor="middle"
font-family="Inter, Helvetica, Arial, sans-serif"
font-size="76" font-weight="300" fill="#f5e8d2">OUR BLOGS</text>

<text x="800" y="395" text-anchor="middle"
font-family="Inter, Helvetica, Arial, sans-serif"
font-size="32"  fill="#efe2cb">
Where long-term ambitions meet
</text>
<text x="800" y="445" text-anchor="middle"
font-family="Inter, Helvetica, Arial, sans-serif"
font-size="32"  fill="#efe2cb">
refined financial strategy—
</text>
<text x="800" y="495" text-anchor="middle"
font-family="Inter, Helvetica, Arial, sans-serif"
font-size="32"  fill="#efe2cb">
elevating futures through expert advisory
</text>
<text x="800" y="545" text-anchor="middle"
font-family="Inter, Helvetica, Arial, sans-serif"
font-size="32"  fill="#efe2cb">
insight and inspired planning.
</text>

<circle cx="800" cy="345" r="2.5" fill="#d7b679"/>
<circle cx="790" cy="345" r="2" fill="#d7b679"/>
<circle cx="810" cy="345" r="2" fill="#d7b679"/>

</svg>
